<?xml version="1.0" ?><svg height="60px" version="1.1" viewBox="0 0 60 60" width="60px" xmlns="http://www.w3.org/2000/svg" xmlns:xlink="http://www.w3.org/1999/xlink"><title/><desc/><defs/><g fill="none" fill-rule="evenodd" id="People" stroke="none" stroke-width="1"><g fill="#000000" id="Icon-1"><path d="M5,14 C4.448,14 4,14.448 4,15 L4,49 C4,49.552 4.448,50 5,50 C5.552,50 6,49.552 6,49 L6,15 C6,14.448 5.552,14 5,14 L5,14 Z M22,22 C22,23.103 22.897,24 24,24 C25.103,24 26,23.103 26,22 C26,20.897 25.103,20 24,20 C22.897,20 22,20.897 22,22 L22,22 Z M18,31 C18,31.552 18.448,32 19,32 L25,32 C25.265,32 25.52,31.895 25.707,31.707 L32,25.414 L34.293,27.707 C34.684,28.098 35.316,28.098 35.707,27.707 L40,23.414 L44.293,27.707 C44.684,28.098 45.316,28.098 45.707,27.707 C46.098,27.316 46.098,26.684 45.707,26.293 L40.707,21.293 C40.316,20.902 39.684,20.902 39.293,21.293 L35,25.586 L32.707,23.293 C32.316,22.902 31.684,22.902 31.293,23.293 L24.586,30 L20,30 L20,18 L48,18 L48,30 L31,30 C30.448,30 30,30.448 30,31 C30,31.552 30.448,32 31,32 L49,32 C49.552,32 50,31.552 50,31 L50,17 C50,16.448 49.552,16 49,16 L19,16 C18.448,16 18,16.448 18,17 L18,31 Z M47,48 L37,48 C36.448,48 36,48.448 36,49 C36,49.552 36.448,50 37,50 L47,50 C47.552,50 48,49.552 48,49 C48,48.448 47.552,48 47,48 L47,48 Z M19,50 L29,50 C29.552,50 30,49.552 30,49 C30,48.448 29.552,48 29,48 L19,48 C18.448,48 18,48.448 18,49 C18,49.552 18.448,50 19,50 L19,50 Z M47,42 L37,42 C36.448,42 36,42.448 36,43 C36,43.552 36.448,44 37,44 L47,44 C47.552,44 48,43.552 48,43 C48,42.448 47.552,42 47,42 L47,42 Z M19,44 L31,44 C31.552,44 32,43.552 32,43 C32,42.448 31.552,42 31,42 L19,42 C18.448,42 18,42.448 18,43 C18,43.552 18.448,44 19,44 L19,44 Z M50,37 C50,36.448 49.552,36 49,36 L37,36 C36.448,36 36,36.448 36,37 C36,37.552 36.448,38 37,38 L49,38 C49.552,38 50,37.552 50,37 L50,37 Z M49,12 C49.552,12 50,11.552 50,11 C50,10.448 49.552,10 49,10 L45,10 C44.448,10 44,10.448 44,11 C44,11.552 44.448,12 45,12 L49,12 Z M19,12 L35,12 C35.552,12 36,11.552 36,11 C36,10.448 35.552,10 35,10 L19,10 C18.448,10 18,10.448 18,11 C18,11.552 18.448,12 19,12 L19,12 Z M19,38 L29,38 C29.552,38 30,37.552 30,37 C30,36.448 29.552,36 29,36 L19,36 C18.448,36 18,36.448 18,37 C18,37.552 18.448,38 19,38 L19,38 Z M60,5 L60,51 C60,56.551 56.551,60 51,60 L9,60 C3.449,60 0,56.551 0,51 L0,13 C0,10.243 2.243,8 5,8 C5.552,8 6,8.448 6,9 C6,9.552 5.552,10 5,10 C3.346,10 2,11.346 2,13 L2,51 C2,55.449 4.551,58 9,58 L51,58 C55.449,58 58,55.449 58,51 L58,5 C58,3.346 56.654,2 55,2 L13,2 C11.402,2 10,3.402 10,5 L10,53 C10,53.552 9.552,54 9,54 C8.448,54 8,53.552 8,53 L8,5 C8,2.29 10.29,0 13,0 L55,0 C57.757,0 60,2.243 60,5 L60,5 Z" id="newspaper"/></g></g></svg>